<svg width="20" height="20" viewBox="0 0 20 20" fill="none" xmlns="http://www.w3.org/2000/svg">
<path d="M19.6486 17.875C18.2208 15.4065 16.0205 13.6365 13.4527 12.7975C14.7229 12.0414 15.7097 10.8892 16.2617 9.51792C16.8136 8.14665 16.9002 6.63211 16.5081 5.20688C16.116 3.78165 15.2668 2.52454 14.0911 1.6286C12.9154 0.732664 11.4781 0.247437 9.99989 0.247437C8.5217 0.247437 7.08438 0.732664 5.90866 1.6286C4.73294 2.52454 3.88382 3.78165 3.49171 5.20688C3.09959 6.63211 3.18616 8.14665 3.73813 9.51792C4.29009 10.8892 5.27692 12.0414 6.54708 12.7975C3.97926 13.6356 1.77895 15.4056 0.351138 17.875C0.298777 17.9604 0.264047 18.0554 0.248996 18.1544C0.233945 18.2534 0.238878 18.3544 0.263504 18.4515C0.28813 18.5486 0.331951 18.6397 0.39238 18.7196C0.452809 18.7995 0.528623 18.8664 0.615348 18.9165C0.702074 18.9666 0.797954 18.9988 0.897332 19.0113C0.996711 19.0237 1.09757 19.0161 1.19397 18.989C1.29037 18.9618 1.38034 18.9156 1.45859 18.8531C1.53684 18.7906 1.60178 18.713 1.64958 18.625C3.41583 15.5725 6.5377 13.75 9.99989 13.75C13.4621 13.75 16.584 15.5725 18.3502 18.625C18.398 18.713 18.4629 18.7906 18.5412 18.8531C18.6194 18.9156 18.7094 18.9618 18.8058 18.989C18.9022 19.0161 19.0031 19.0237 19.1024 19.0113C19.2018 18.9988 19.2977 18.9666 19.3844 18.9165C19.4712 18.8664 19.547 18.7995 19.6074 18.7196C19.6678 18.6397 19.7116 18.5486 19.7363 18.4515C19.7609 18.3544 19.7658 18.2534 19.7508 18.1544C19.7357 18.0554 19.701 17.9604 19.6486 17.875ZM4.74989 6.99999C4.74989 5.96164 5.05779 4.9466 5.63467 4.08324C6.21155 3.21989 7.03149 2.54698 7.9908 2.14962C8.95011 1.75226 10.0057 1.64829 11.0241 1.85086C12.0425 2.05344 12.978 2.55345 13.7122 3.28768C14.4464 4.0219 14.9464 4.95736 15.149 5.97576C15.3516 6.99416 15.2476 8.04976 14.8503 9.00908C14.4529 9.96839 13.78 10.7883 12.9166 11.3652C12.0533 11.9421 11.0382 12.25 9.99989 12.25C8.60796 12.2485 7.27347 11.6949 6.28922 10.7107C5.30498 9.72641 4.75138 8.39192 4.74989 6.99999Z" fill="#1C1C1C"/>
</svg>
